<?xml version="1.0" standalone="no"?><!DOCTYPE svg PUBLIC "-//W3C//DTD SVG 1.1//EN"
        "http://www.w3.org/Graphics/SVG/1.1/DTD/svg11.dtd">
<svg t="1579506791593" class="icon" viewBox="0 0 1024 1024" version="1.1" xmlns="http://www.w3.org/2000/svg" p-id="3779"
     width="200" height="200">
    <defs>
        <style type="text/css"></style>
    </defs>
    <path d="M286.722048 405.987328l0 477.058048-132.51584 0L154.206208 405.987328 286.722048 405.987328M313.22624 352.980992 127.70304 352.980992c-14.636032 0-26.503168 11.867136-26.503168 26.503168L101.199872 909.54752c0 14.636032 11.867136 26.503168 26.503168 26.503168l185.5232 0c14.636032 0 26.503168-11.867136 26.503168-26.503168L339.729408 379.483136C339.729408 364.847104 327.862272 352.980992 313.22624 352.980992L313.22624 352.980992zM577.998848 563.557376l0 319.488L445.476864 883.045376l0-319.488L577.998848 563.557376M604.502016 510.543872l-185.52832 0c-14.636032 0-26.503168 11.859968-26.503168 26.510336L392.470528 909.54752c0 14.636032 11.867136 26.503168 26.503168 26.503168l185.52832 0c14.623744 0 26.504192-11.867136 26.504192-26.503168L631.006208 537.054208c0-14.623744-11.880448-26.497024-26.504192-26.497024l0 0L604.502016 510.543872zM869.792768 140.954624l0 742.090752L737.5104 883.045376l0-742.090752L869.792768 140.954624M896.29696 87.948288 711.007232 87.948288c-14.649344 0-26.503168 11.867136-26.503168 26.503168L684.504064 909.54752c0 14.636032 11.853824 26.503168 26.503168 26.503168L896.29696 936.050688c14.636032 0 26.503168-11.867136 26.503168-26.503168l0-795.096064C922.800128 99.815424 910.932992 87.948288 896.29696 87.948288L896.29696 87.948288z"
          p-id="3780"></path>
</svg>