<?xml version="1.0" standalone="no"?><!DOCTYPE svg PUBLIC "-//W3C//DTD SVG 1.1//EN"
        "http://www.w3.org/Graphics/SVG/1.1/DTD/svg11.dtd">
<svg t="1579506722908" class="icon" viewBox="0 0 1024 1024" version="1.1" xmlns="http://www.w3.org/2000/svg" p-id="3030"
     width="200" height="200">
    <defs>
        <style type="text/css"></style>
    </defs>
    <path d="M509.87008 193.80224c-3.85024-3.85024-9.03168-6.00064-14.47936-6.00064L230.03136 187.78112c-11.28448 0-20.43904 9.1136-20.48 20.39808L208.60928 474.5216c-0.02048 5.46816 2.12992 10.69056 6.00064 14.56128l348.0576 348.0576c3.85024 3.85024 9.03168 6.00064 14.47936 6.00064s10.6496-2.1504 14.47936-6.00064l266.32192-266.32192c8.00768-8.00768 8.00768-20.95104 0-28.95872L509.87008 193.80224zM577.14688 793.7024 249.61024 466.14528l0.83968-237.40416 236.48256 0.02048 327.5776 327.5776L577.14688 793.7024z"
          p-id="3031"></path>
    <path d="M417.01376 396.20608m-53.4528 0a2.61 2.61 0 1 0 106.9056 0 2.61 2.61 0 1 0-106.9056 0Z" p-id="3032"></path>
</svg>