<?xml version="1.0" standalone="no"?><!DOCTYPE svg PUBLIC "-//W3C//DTD SVG 1.1//EN"
        "http://www.w3.org/Graphics/SVG/1.1/DTD/svg11.dtd">
<svg t="1579506666818" class="icon" viewBox="0 0 1024 1024" version="1.1" xmlns="http://www.w3.org/2000/svg" p-id="2285"
     width="200" height="200">
    <defs>
        <style type="text/css"></style>
    </defs>
    <path fill="blue"
          d="M635.733333 588.8c12.8 0 21.333333-8.533333 21.333334-21.333333s-8.533333-21.333333-21.333334-21.333334h-72.533333l78.933333-81.066666c8.533333-8.533333 8.533333-21.333333 0-29.866667s-21.333333-8.533333-29.866666 0L512 537.6l-100.266667-102.4c-8.533333-8.533333-21.333333-8.533333-29.866666 0s-8.533333 21.333333 0 29.866667l78.933333 81.066666h-72.533333c-12.8 0-21.333333 8.533333-21.333334 21.333334s8.533333 21.333333 21.333334 21.333333H490.666667v53.333333h-102.4c-12.8 0-21.333333 8.533333-21.333334 21.333334s8.533333 21.333333 21.333334 21.333333H490.666667v119.466667c0 12.8 8.533333 21.333333 21.333333 21.333333s21.333333-8.533333 21.333333-21.333333v-119.466667h102.4c12.8 0 21.333333-8.533333 21.333334-21.333333s-8.533333-21.333333-21.333334-21.333334H533.333333v-53.333333h102.4z"
          p-id="2286"></path>
    <path fill="yellow"
          d="M898.133333 618.666667c-2.133333-10.666667-12.8-19.2-23.466666-19.2-10.666667 2.133333-19.2 12.8-19.2 23.466666 8.533333 81.066667-8.533333 145.066667-49.066667 192-53.333333 59.733333-149.333333 89.6-283.733333 89.6h-19.2-2.133334c-140.8 0-238.933333-32-290.133333-98.133333-55.466667-68.266667-51.2-164.266667-36.266667-230.4 10.666667-46.933333 32-110.933333 108.8-183.466667 27.733333-23.466667 64-46.933333 76.8-53.333333 32 4.266667 100.266667 14.933333 172.8 14.933333 42.666667 0 87.466667-4.266667 125.866667-12.8h2.133333c14.933333 6.4 49.066667 29.866667 74.666667 51.2 21.333333 19.2 38.4 38.4 53.333333 57.6 6.4 8.533333 21.333333 10.666667 29.866667 4.266667 8.533333-6.4 10.666667-21.333333 4.266667-29.866667-17.066667-21.333333-36.266667-42.666667-59.733334-64-10.666667-8.533333-36.266667-29.866667-61.866666-44.8 23.466667-17.066667 57.6-44.8 68.266666-78.933333 8.533333-25.6 6.4-53.333333-10.666666-76.8-21.333333-29.866667-59.733333-46.933333-102.4-46.933333-17.066667 0-32 2.133333-46.933334 8.533333-2.133333 0-2.133333 2.133333-4.266666 2.133333-4.266667-6.4-10.666667-12.8-17.066667-17.066666-21.333333-17.066667-44.8-25.6-74.666667-25.6h-4.266666-4.266667c-29.866667 0-55.466667 8.533333-74.666667 25.6l-17.066666 17.066666c-2.133333 0-2.133333 0-4.266667-2.133333-14.933333-6.4-29.866667-8.533333-46.933333-8.533333-42.666667 0-78.933333 17.066667-100.266667 46.933333-17.066667 23.466667-21.333333 51.2-12.8 76.8 10.666667 34.133333 44.8 61.866667 68.266667 78.933333-23.466667 14.933333-51.2 36.266667-61.866667 44.8-68.266667 64-106.666667 125.866667-123.733333 206.933334-17.066667 76.8-23.466667 185.6 44.8 266.666666 61.866667 74.666667 170.666667 113.066667 324.266666 113.066667h21.333334c147.2 0 253.866667-34.133333 315.733333-104.533333 49.066667-55.466667 70.4-132.266667 59.733333-224zM292.266667 221.866667c-6.4-17.066667 0-32 6.4-38.4 12.8-17.066667 38.4-29.866667 66.133333-29.866667 10.666667 0 21.333333 2.133333 32 6.4 4.266667 2.133333 8.533333 2.133333 10.666667 4.266667 12.8 6.4 27.733333 0 34.133333-8.533334 0 0 0-2.133333 2.133333-2.133333 2.133333-4.266667 8.533333-10.666667 17.066667-19.2 12.8-10.666667 27.733333-17.066667 46.933333-17.066667h8.533334c19.2 0 34.133333 4.266667 46.933333 17.066667 8.533333 8.533333 14.933333 14.933333 17.066667 19.2 0 0 0 2.133333 2.133333 2.133333 8.533333 8.533333 23.466667 14.933333 36.266667 8.533334 2.133333-2.133333 4.266667-2.133333 10.666666-4.266667 8.533333-4.266667 19.2-6.4 32-6.4 27.733333 0 55.466667 10.666667 68.266667 29.866667 8.533333 10.666667 10.666667 23.466667 6.4 38.4-10.666667 29.866667-53.333333 59.733333-72.533333 70.4-4.266667 2.133333-6.4 4.266667-10.666667 6.4h-2.133333c-93.866667 25.6-238.933333 4.266667-279.466667-2.133334-2.133333-2.133333-4.266667-4.266667-6.4-4.266666-19.2-10.666667-64-40.533333-72.533333-70.4z"
          p-id="2287"></path>
    <path fill="green" d="M853.333333 520.533333m-32 0a32 32 0 1 0 64 0 32 32 0 1 0-64 0Z" p-id="2288"></path>
</svg>